<?xml version="1.0" encoding="utf-8"?>
<!-- Generator: Adobe Adobe Illustrator 24.2.0, SVG Export Plug-In . SVG Version: 6.00 Build 0)  -->
<svg version="1.1" id="Layer_1" xmlns="http://www.w3.org/2000/svg" xmlns:xlink="http://www.w3.org/1999/xlink" x="0px" y="0px"
	 viewBox="0 0 50 50" style="enable-background:new 0 0 50 50;" xml:space="preserve">
<style type="text/css">
	.st0{fill:#FE9838;}
</style>
<g>
	<g>
		<g>
			<g>
				<path class="st0" d="M18.5,38.7l-3.3,5.7c10.2,5.2,22.8,1.5,28.6-8.5l-5.7-3.3C34.1,39.5,25.6,42,18.5,38.7z"/>
			</g>
		</g>
		<g>
			<g>
				<path class="st0" d="M11.9,32.6L11.9,32.6c-4-6.9-1.9-15.6,4.5-20l-3.3-5.7c-9.6,6.3-12.7,19-6.9,29l0,0L11.9,32.6z"/>
			</g>
		</g>
		<g>
			<g>
				<path class="st0" d="M40.1,23.8h6.7l0,0C46.2,12.4,36.7,3.3,25.1,3.3v6.6C32.9,9.9,39.4,16,40.1,23.8z"/>
			</g>
		</g>
		<circle class="st0" cx="25" cy="25" r="11.4"/>
	</g>
</g>
</svg>
