<svg id="Layer_1" data-name="Layer 1" xmlns="http://www.w3.org/2000/svg" viewBox="0 0 43.52 43.45"><defs><style>.cls-1{fill:#f8983a;}</style></defs><path class="cls-1" d="M18.5,38.7l-3.3,5.7a21.72,21.72,0,0,0,28.6-8.5l-5.7-3.3A15.17,15.17,0,0,1,18.5,38.7Z" transform="translate(-3.28 -3.3)"/><path class="cls-1" d="M11.9,32.6h0a15.1,15.1,0,0,1,4.5-20L13.1,6.9a21.67,21.67,0,0,0-6.9,29h0Z" transform="translate(-3.28 -3.3)"/><path class="cls-1" d="M40.1,23.8h6.7A21.72,21.72,0,0,0,25.1,3.3V9.9A15.19,15.19,0,0,1,40.1,23.8Z" transform="translate(-3.28 -3.3)"/><circle class="cls-1" cx="21.72" cy="21.7" r="11.4"/></svg>